<svg id="Design" xmlns="http://www.w3.org/2000/svg" xmlns:xlink="http://www.w3.org/1999/xlink" viewBox="0 0 81.59 192.53"><defs><style>.cls-1{fill:url(#linear-gradient);}.cls-2{fill:url(#linear-gradient-2);}.cls-3{fill:url(#linear-gradient-3);}.cls-4{fill:url(#linear-gradient-4);}.cls-5{fill:url(#linear-gradient-5);}.cls-6{fill:url(#linear-gradient-6);}.cls-7{fill:url(#linear-gradient-7);}.cls-8{fill:url(#linear-gradient-8);}.cls-9{fill:url(#linear-gradient-9);}.cls-10{fill:url(#linear-gradient-10);}.cls-11{opacity:0.4;}.cls-12{fill:url(#linear-gradient-11);}.cls-13{fill:url(#linear-gradient-12);}.cls-14{fill:url(#linear-gradient-13);}.cls-15{fill:url(#linear-gradient-14);}.cls-16{fill:url(#linear-gradient-15);}.cls-17{fill:url(#linear-gradient-16);}.cls-18{fill:url(#linear-gradient-17);}.cls-19{fill:url(#linear-gradient-18);}.cls-20{fill:url(#linear-gradient-19);}.cls-21{fill:url(#linear-gradient-20);}.cls-22{fill:url(#linear-gradient-21);}.cls-23{fill:url(#linear-gradient-22);}.cls-24{fill:url(#linear-gradient-23);}</style><linearGradient id="linear-gradient" x1="16.5" y1="187.8" x2="70.12" y2="187.8" gradientTransform="matrix(1, 0, 0, -1, 0, 194)" gradientUnits="userSpaceOnUse"><stop offset="0" stop-color="#eebe47"/><stop offset="0.12" stop-color="#f8db77"/><stop offset="0.21" stop-color="#ffee96"/><stop offset="0.45" stop-color="#a2621e"/><stop offset="0.67" stop-color="#eea54c"/><stop offset="1" stop-color="#eebe47"/></linearGradient><linearGradient id="linear-gradient-2" x1="10.87" y1="187.8" x2="64.5" y2="187.8" xlink:href="#linear-gradient"/><linearGradient id="linear-gradient-3" x1="114" y1="91.65" x2="173.28" y2="91.65" gradientTransform="matrix(1, 0, 0, -1, -103.19, 119.17)" xlink:href="#linear-gradient"/><linearGradient id="linear-gradient-4" x1="31.8" y1="187.8" x2="60.26" y2="187.8" xlink:href="#linear-gradient"/><linearGradient id="linear-gradient-5" x1="114.26" y1="113.54" x2="173.1" y2="113.54" gradientTransform="matrix(1, 0, 0, -1, -103.19, 119.17)" xlink:href="#linear-gradient"/><linearGradient id="linear-gradient-6" x1="126.5" y1="113.54" x2="160.87" y2="113.54" gradientTransform="matrix(1, 0, 0, -1, -103.19, 119.17)" xlink:href="#linear-gradient"/><linearGradient id="linear-gradient-7" x1="11.98" y1="166.66" x2="69.02" y2="166.66" xlink:href="#linear-gradient"/><linearGradient id="linear-gradient-8" x1="30.23" y1="166.66" x2="50.76" y2="166.66" xlink:href="#linear-gradient"/><linearGradient id="linear-gradient-9" x1="2018.36" y1="2771.71" x2="1914.62" y2="2866.85" gradientTransform="matrix(-1, 0, 0, 1, 1985.81, -2753.16)" xlink:href="#linear-gradient"/><linearGradient id="linear-gradient-10" x1="75.12" y1="92.78" x2="258.57" y2="-65.51" gradientTransform="matrix(1, 0, 0, -1, -103.19, 119.17)" xlink:href="#linear-gradient"/><linearGradient id="linear-gradient-11" x1="2018.67" y1="-157.86" x2="1914.93" y2="-62.72" gradientTransform="translate(1985.81 78.56) rotate(180)" xlink:href="#linear-gradient"/><linearGradient id="linear-gradient-12" x1="74.66" y1="3022.13" x2="258.1" y2="2863.84" gradientTransform="translate(-103.19 -2793.77)" xlink:href="#linear-gradient"/><linearGradient id="linear-gradient-13" x1="104.2" y1="64.36" x2="189.87" y2="-1.97" gradientTransform="matrix(1, 0, 0, -1, -103.19, 119.17)" xlink:href="#linear-gradient"/><linearGradient id="linear-gradient-14" x1="106.31" y1="67.08" x2="191.97" y2="0.75" gradientTransform="matrix(1, 0, 0, -1, -103.19, 119.17)" xlink:href="#linear-gradient"/><linearGradient id="linear-gradient-15" x1="107.86" y1="69.06" x2="193.5" y2="2.75" gradientTransform="matrix(1, 0, 0, -1, -103.19, 119.17)" xlink:href="#linear-gradient"/><linearGradient id="linear-gradient-16" x1="110.54" y1="72.56" x2="196.22" y2="6.22" gradientTransform="matrix(1, 0, 0, -1, -103.19, 119.17)" xlink:href="#linear-gradient"/><linearGradient id="linear-gradient-17" x1="110.78" y1="72.84" x2="196.43" y2="6.51" gradientTransform="matrix(1, 0, 0, -1, -103.19, 119.17)" xlink:href="#linear-gradient"/><linearGradient id="linear-gradient-18" x1="111.53" y1="73.82" x2="197.2" y2="7.49" gradientTransform="matrix(1, 0, 0, -1, -103.19, 119.17)" xlink:href="#linear-gradient"/><linearGradient id="linear-gradient-19" x1="112.25" y1="74.77" x2="197.93" y2="8.43" gradientTransform="matrix(1, 0, 0, -1, -103.19, 119.17)" xlink:href="#linear-gradient"/><linearGradient id="linear-gradient-20" x1="96.28" y1="54.15" x2="181.95" y2="-12.18" gradientTransform="matrix(1, 0, 0, -1, -103.19, 119.17)" xlink:href="#linear-gradient"/><linearGradient id="linear-gradient-21" x1="97.48" y1="55.67" x2="183.13" y2="-10.65" gradientTransform="matrix(1, 0, 0, -1, -103.19, 119.17)" xlink:href="#linear-gradient"/><linearGradient id="linear-gradient-22" x1="100.34" y1="59.38" x2="186.01" y2="-6.96" gradientTransform="matrix(1, 0, 0, -1, -103.19, 119.17)" xlink:href="#linear-gradient"/><linearGradient id="linear-gradient-23" x1="102.31" y1="61.9" x2="187.96" y2="-4.42" gradientTransform="matrix(1, 0, 0, -1, -103.19, 119.17)" xlink:href="#linear-gradient"/></defs><title>Golden ring</title><polygon class="cls-1" points="52.96 11.8 58.92 0.59 70.12 11.8 52.96 11.8"/><polygon class="cls-2" points="10.87 11.8 22.08 0.59 28.03 11.8 10.87 11.8"/><path class="cls-3" d="M10.81,13.22h17.9l10.4,28.59Zm41.42,0H70.09L41.83,41.81Z" transform="translate(0)"/><polygon class="cls-4" points="30.77 11.8 40.5 0.59 50.22 11.8 30.77 11.8"/><path class="cls-5" d="M23.37,0H39.12L29.35,11.26ZM41.86,0H57.62l-6,11.26Z" transform="translate(0)"/><path class="cls-6" d="M23.37,0H39.12L29.35,11.26ZM41.86,0H57.62l-6,11.26Z" transform="translate(0)"/><polygon class="cls-7" points="30.23 13.22 50.76 13.22 40.5 41.45 30.23 13.22"/><polygon class="cls-8" points="30.23 13.22 50.76 13.22 40.5 41.45 30.23 13.22"/><path class="cls-9" d="M40.81,46.35A39.48,39.48,0,1,1,1.33,85.83h0A39.51,39.51,0,0,1,40.81,46.35Zm0,74.66A35.19,35.19,0,1,0,5.63,85.81v0A35.22,35.22,0,0,0,40.81,121Z" transform="translate(0)"/><path class="cls-10" d="M40.81,126.6A40.78,40.78,0,1,1,81.59,85.82h0A40.82,40.82,0,0,1,40.81,126.6Zm0-77.11A36.34,36.34,0,1,0,77.15,85.83h0A36.38,36.38,0,0,0,40.81,49.49Z" transform="translate(0)"/><g class="cls-11"><path class="cls-12" d="M14.22,192.53a35.18,35.18,0,1,1,53.1,0h5.49a39.48,39.48,0,1,0-64,0Z" transform="translate(0)"/><path class="cls-13" d="M12.7,192.53a36.34,36.34,0,1,1,56.14,0h5.54a40.77,40.77,0,1,0-67.22,0Z" transform="translate(0)"/></g><path class="cls-14" d="M34.28,71.9a13,13,0,0,0-5.39-1.66,5.13,5.13,0,0,0-3.42,1.16,3.18,3.18,0,0,0-1.31,2.39,1,1,0,0,0,.48,1,2.55,2.55,0,0,0,1.23.36,1.58,1.58,0,0,0,.43-.05,3.14,3.14,0,0,0,1.29-.61c.36-.29.53-.52.53-.7a.41.41,0,0,1,.16-.36c.11-.07.16-.05.16.07a.89.89,0,0,1,0,.23,2.36,2.36,0,0,1-1.62,1.61,3.61,3.61,0,0,1-1.13.18,2.22,2.22,0,0,1-1.15-.35,2,2,0,0,1-1.06-1.82,3.59,3.59,0,0,1,1.36-2.69,4.82,4.82,0,0,1,3.32-1.21,6.69,6.69,0,0,1,1.94.28,16.26,16.26,0,0,1,4.44,1.93,1.47,1.47,0,0,1,1.06-.57c.41,0,.62.14.63.41s0,.18-.11.17a.36.36,0,0,1-.19-.13.69.69,0,0,0-.24-.05,1.12,1.12,0,0,0-.75.36,14.82,14.82,0,0,0,2.88,1.05,5.62,5.62,0,0,0,1,.15h.58a1.08,1.08,0,0,0,1-.55.69.69,0,0,1,.2-.3c.07,0,.1,0,.11.06v.13a1.11,1.11,0,0,1-.69,1,1.92,1.92,0,0,1-.82.21,4.57,4.57,0,0,1-.83-.07,9.45,9.45,0,0,1-1.16-.31c-.47-.15-.86-.3-1.16-.43s-.59-.27-.88-.42l-.46-.23a12.69,12.69,0,0,0-1.84,3.37l-.36.91a13.17,13.17,0,0,0,1.77.13h1.28c.32,0,.48,0,.49.11s-.81.36-2.47.36A9,9,0,0,1,32.31,77a16.43,16.43,0,0,1-2.06,4.18,11,11,0,0,1-1.08,1.19,6.1,6.1,0,0,1-1.37,1,7.47,7.47,0,0,1-3.67.9,6.17,6.17,0,0,1-3.43-.9,4.25,4.25,0,0,1-2.14-3.83,7,7,0,0,1,.28-1.81,2.53,2.53,0,0,1,.74-1.11,2.6,2.6,0,0,1,.91-.59c.24-.07.35-.08.34,0a2.51,2.51,0,0,1-.58.45A3,3,0,0,0,19,78.35a4.19,4.19,0,0,0-.09,1,3.52,3.52,0,0,0,.25,1.2A4.59,4.59,0,0,0,22,83.13a6,6,0,0,0,2.17.39,6.11,6.11,0,0,0,2.31-.47,6.84,6.84,0,0,0,2.12-1.39A13.9,13.9,0,0,0,31.71,77H30.65a3,3,0,0,0-2.56.89Q28,78,27.85,78a.21.21,0,0,1,0-.24,2.36,2.36,0,0,1,1-1.14,2.89,2.89,0,0,1,1.32-.35,12.93,12.93,0,0,1,1.76.15,21.28,21.28,0,0,1,1.3-2.62A13.07,13.07,0,0,1,34.28,71.9Z" transform="translate(0)"/><path class="cls-15" d="M36.7,79.46a3,3,0,0,0-.24,1.26,1.23,1.23,0,0,0,.21.74.71.71,0,0,0,.59.27c1,0,1.92-1,2.74-2.84.07-.17.17-.25.28-.23a.08.08,0,0,1,.06.08,5.54,5.54,0,0,1-.37.87,8.07,8.07,0,0,1-.75,1.31,2.53,2.53,0,0,1-2.09,1.16A1.58,1.58,0,0,1,36,81.64a1.5,1.5,0,0,1-.46-1.17,4.13,4.13,0,0,1,.35-1.59,6,6,0,0,1,1-1.55,3.78,3.78,0,0,1,1.41-1.06,1.84,1.84,0,0,1,.73-.16,1.16,1.16,0,0,1,.65.2.65.65,0,0,1,.28.51,2.51,2.51,0,0,1-1.19,1.91,3.47,3.47,0,0,1-1,.5A3.53,3.53,0,0,1,36.7,79.46Zm2.78-2.66c0-.22-.09-.33-.26-.33a3.24,3.24,0,0,0-1.41,1.15,8.72,8.72,0,0,0-1,1.55,2.58,2.58,0,0,0,.82-.19,3.35,3.35,0,0,0,.94-.53,2.17,2.17,0,0,0,.91-1.65Z" transform="translate(0)"/><path class="cls-16" d="M40.81,79.46a3.2,3.2,0,0,0-.23,1.26,1.23,1.23,0,0,0,.21.74.71.71,0,0,0,.59.27c1,0,1.92-1,2.73-2.84.08-.17.17-.25.29-.23a.08.08,0,0,1,.06.08,5.54,5.54,0,0,1-.37.87,7.45,7.45,0,0,1-.76,1.31,2.51,2.51,0,0,1-2.08,1.16,1.58,1.58,0,0,1-1.13-.44,1.51,1.51,0,0,1-.47-1.17A4,4,0,0,1,40,78.88a6,6,0,0,1,1-1.55,3.78,3.78,0,0,1,1.41-1.06,1.84,1.84,0,0,1,.73-.16,1.16,1.16,0,0,1,.65.2.66.66,0,0,1,.28.51,2.52,2.52,0,0,1-1.2,1.91,3.35,3.35,0,0,1-1,.5A3.53,3.53,0,0,1,40.81,79.46ZM43.6,76.8q0-.33-.27-.33c-.31,0-.77.38-1.4,1.15a8.72,8.72,0,0,0-1,1.55,2.58,2.58,0,0,0,.82-.19,3.35,3.35,0,0,0,.94-.53,2.19,2.19,0,0,0,.87-1.65Z" transform="translate(0)"/><path class="cls-17" d="M44.89,79.27c-.09.26-.17.5-.23.74a2.82,2.82,0,0,0-.09.71,1.45,1.45,0,0,0,.17.67.56.56,0,0,0,.53.31c.4,0,.78-.27,1.16-.81a18.21,18.21,0,0,0,1.19-2c.09-.15.17-.21.25-.18a.13.13,0,0,1,0,.18l-.2.46c-.11.24-.19.4-.24.5s-.13.26-.26.49a3.61,3.61,0,0,1-.33.53l-.38.45a2,2,0,0,1-.46.41,2.11,2.11,0,0,1-1.09.36,1.26,1.26,0,0,1-.8-.22.86.86,0,0,1-.34-.48,1.76,1.76,0,0,1-.06-.46v-.51a4.24,4.24,0,0,1,.21-1l.17-.56a22.87,22.87,0,0,1,1.09-3,22.14,22.14,0,0,1,1.19-2.45,7.18,7.18,0,0,1,.77-1.12,1.56,1.56,0,0,1,1.11-.59q.39,0,.51.54a1,1,0,0,1,0,.25,3.56,3.56,0,0,1-.4,1.43,15,15,0,0,1-3.4,5Zm2-3.16a17.21,17.21,0,0,0,1.22-2.23,4,4,0,0,0,.39-1.25q0-.33-.12-.33c-.11,0-.32.21-.63.65a17.63,17.63,0,0,0-1.25,2.35c-.52,1.14-1,2.13-1.28,3a13,13,0,0,0,1.64-2.19Z" transform="translate(0)"/><path class="cls-18" d="M48.28,81.64a1,1,0,0,0,.67-.31,10.8,10.8,0,0,0,1.56-2.5c.07-.17.15-.22.23-.15a.21.21,0,0,1,0,.11,1.11,1.11,0,0,1-.13.36l-.24.52c-.13.26-.27.51-.42.76a6.3,6.3,0,0,1-.55.8,1.84,1.84,0,0,1-1.29.78,1,1,0,0,1-.87-.37,1.39,1.39,0,0,1-.26-.81,2.89,2.89,0,0,1,.21-1l1.06-2.7a.57.57,0,0,0,0-.26.78.78,0,0,0-.2-.43H49c.25,0,.4,0,.45.14a.58.58,0,0,1-.1.44L48,80.12a2.5,2.5,0,0,0-.28,1A.56.56,0,0,0,48.28,81.64Zm1.63-6.08a.77.77,0,0,1-.52.2.57.57,0,0,1-.44-.2.64.64,0,0,1-.14-.48.83.83,0,0,1,.29-.48.74.74,0,0,1,.51-.2.61.61,0,0,1,.46.2.55.55,0,0,1,.12.48A.77.77,0,0,1,49.91,75.56Z" transform="translate(0)"/><path class="cls-19" d="M55.53,76.57q-2,3.59-2,4.68c0,.29.1.43.31.43.57,0,1.32-1,2.28-2.87.06-.15.13-.22.19-.18a.14.14,0,0,1,.1.13.36.36,0,0,1-.06.2,11.31,11.31,0,0,1-1.49,2.44,1.69,1.69,0,0,1-1.21.68,1,1,0,0,1-.92-.47.94.94,0,0,1-.16-.59,3,3,0,0,1,.16-.9,9.44,9.44,0,0,1,.91-1.72,1.06,1.06,0,0,0,.19-.48c0-.11-.1-.17-.28-.17s-.55.25-1.08.75a11.4,11.4,0,0,0-2.31,3.28.36.36,0,0,1-.22.2,2,2,0,0,1-.49.06,1,1,0,0,0-.48.09c.18-.36.53-1.08,1-2.18a17.22,17.22,0,0,1,1.83-3.31.75.75,0,0,1,.55-.2h.34a1.34,1.34,0,0,0,.4,0c-.41.22-1.08,1.26-2,3.11A12.79,12.79,0,0,1,52.5,78,8.11,8.11,0,0,1,54,77a3.07,3.07,0,0,1,1.31-.49A.52.52,0,0,1,55.53,76.57Z" transform="translate(0)"/><path class="cls-20" d="M54.93,87.25c-1,0-1.56-.43-1.56-1.28s.48-1.34,1.45-1.9A16.08,16.08,0,0,1,58,82.72c.59-.18,1-.34,1.28-.44a8.61,8.61,0,0,0,.43-2.76,1.62,1.62,0,0,0,0-.44A10.8,10.8,0,0,1,58.39,81c-.64.79-1.28,1.1-1.91.92a1.39,1.39,0,0,1-.86-1.42A5.09,5.09,0,0,1,57,77.38a3.38,3.38,0,0,1,1.77-1.21,1.77,1.77,0,0,1,.56-.09,2.48,2.48,0,0,1,1.46.5c.18.15.27.27.27.37a.63.63,0,0,1-.1.29q-.11.14-.21,0a.6.6,0,0,1-.14-.21c-.15-.41-.38-.61-.7-.61a3,3,0,0,0-2,1.23,8.58,8.58,0,0,0-1.06,1.49,3.49,3.49,0,0,0-.55,1.53.74.74,0,0,0,.33.72.59.59,0,0,0,.23,0,1.56,1.56,0,0,0,1-.52A6.2,6.2,0,0,0,59,79.59a5.4,5.4,0,0,0,.62-1.25,1,1,0,0,1,.32-.56.94.94,0,0,1,.43-.13.56.56,0,0,0,.31-.09,10.24,10.24,0,0,1,.13,1.75,8.8,8.8,0,0,1-.34,2.28,4.89,4.89,0,0,0,1.08-1,5,5,0,0,0,.52-.78c.12-.23.24-.46.34-.68s.13-.3.2-.44a.21.21,0,0,1,.16-.13c.08,0,.12,0,.12.11a.46.46,0,0,1-.05.2,16.63,16.63,0,0,1-1.22,2.18,3.5,3.5,0,0,1-1.34,1.07,9.49,9.49,0,0,1-1.15,2.24,7.66,7.66,0,0,1-1.9,2A3.72,3.72,0,0,1,54.93,87.25Zm-1.21-1q0,.63.81.63a2.76,2.76,0,0,0,1.09-.29,5,5,0,0,0,1-.58,9.22,9.22,0,0,0,1.5-1.62,8.84,8.84,0,0,0,.94-1.67l-.58.2a17.4,17.4,0,0,0-3.65,1.59,2.38,2.38,0,0,0-1,1.31,1.29,1.29,0,0,0-.11.47Z" transform="translate(0)"/><path class="cls-21" d="M41.44,86.31a7.63,7.63,0,0,1-1.2,3.88,11.74,11.74,0,0,1-3.32,3.52,10.66,10.66,0,0,1-4.37,1.88c-.86,1.74-1.49,3-1.87,3.66l-.45.72a18.68,18.68,0,0,1,7,3.17,5.23,5.23,0,0,1,1.89,2.66,5,5,0,0,1,.26,1.38,1.84,1.84,0,0,1-.23,1,1.29,1.29,0,0,1-.52.54,1.06,1.06,0,0,1-.42.15c-.09,0-.13,0-.13-.1a2.41,2.41,0,0,1,.24-.63,2.77,2.77,0,0,0,.25-1.23,4.59,4.59,0,0,0-.3-1.55,3.9,3.9,0,0,0-1.1-1.56,8.7,8.7,0,0,0-2.25-1.34,15.71,15.71,0,0,0-2.49-.89c-.7-.18-1.64-.38-2.82-.61a10.35,10.35,0,0,1-3.76,3.47,4.86,4.86,0,0,1-2.08.57,3.44,3.44,0,0,1-1.6-.36A1.91,1.91,0,0,1,21,102.83q0-1.22,1.59-2.13a9.66,9.66,0,0,1,4.89-1.06,11.18,11.18,0,0,1,2,.17,40.89,40.89,0,0,0,2.24-4.11h-.24A6.85,6.85,0,0,1,29,95.26a4.81,4.81,0,0,1-1.83-1.21,3.31,3.31,0,0,1-.89-2.26,3.51,3.51,0,0,1,.33-1.42A4.08,4.08,0,0,1,28,88.81a8.57,8.57,0,0,1,2.88-1.19,1.84,1.84,0,0,1,.47-.06c.13,0,.2,0,.23.1s0,.14-.17.2A2.07,2.07,0,0,1,31,88a3.84,3.84,0,0,0-1.7.62,4.53,4.53,0,0,0-1.89,2.68,2.51,2.51,0,0,0-.13.82,3.84,3.84,0,0,0,.15,1A3.1,3.1,0,0,0,28,94.18a2.55,2.55,0,0,0,1.33.82,5.55,5.55,0,0,0,1.46.17A8.88,8.88,0,0,0,32,95.1l1.81-4.55c1.25-3.2,2.74-5.18,4.47-5.91a3.37,3.37,0,0,1,1.33-.28,2.18,2.18,0,0,1,1.23.41,1.38,1.38,0,0,1,.63,1A3.25,3.25,0,0,1,41.44,86.31ZM28.81,100.8a10.4,10.4,0,0,0-2.15-.23,8.3,8.3,0,0,0-2.27.32c-1.63.42-2.59,1-2.87,1.81a.93.93,0,0,0-.09.4,1,1,0,0,0,.61.9,2.48,2.48,0,0,0,1.33.35,5.09,5.09,0,0,0,2.17-.55A8.89,8.89,0,0,0,28.81,100.8ZM40.6,86.34q0-.81-.75-.81c-.72,0-1.6.63-2.63,1.89a22.16,22.16,0,0,0-2.41,3.65c-.75,1.42-1.41,2.74-2,4a10.26,10.26,0,0,0,5.33-3.25,8,8,0,0,0,2.41-5.43Z" transform="translate(0)"/><path class="cls-22" d="M41.27,95c1,0,1.55.65,1.55,1.95a4.56,4.56,0,0,1-.46,1.92,7.69,7.69,0,0,1-1.79,2.51,1,1,0,0,0,1,.53,1.44,1.44,0,0,0,1.08-.57,6.43,6.43,0,0,0,.92-1.16c.18-.34.32-.58.4-.74s.23-.44.33-.67l.25-.53a.15.15,0,0,1,.15-.09c.14,0,.21,0,.21.14a.38.38,0,0,1,0,.15l-.13.3-.19.43c-.05.08-.12.23-.23.45a5.12,5.12,0,0,1-.27.52l-.32.52q-.21.31-.36.51l-.4.42a2.17,2.17,0,0,1-.44.36,1.88,1.88,0,0,1-1,.32,1.72,1.72,0,0,1-1.37-.55,3.08,3.08,0,0,1-1.8.72q-1.56,0-1.56-2a4.72,4.72,0,0,1,.47-1.92,7.19,7.19,0,0,1,1.8-2.53A3.38,3.38,0,0,1,41.27,95Zm.24.66a2.13,2.13,0,0,0-1.37.76,7.16,7.16,0,0,0-1.4,2.09,6,6,0,0,0-.74,2.51c0,.65.24,1,.74,1a2,2,0,0,0,1.19-.58,1.79,1.79,0,0,1-.34-1c0-.61.28-.92.75-.92a.59.59,0,0,1,.45.2.52.52,0,0,1,.18.35,1.82,1.82,0,0,1,0,.33,12.29,12.29,0,0,0,.83-1.51,4.93,4.93,0,0,0,.53-2.13c0-.76-.3-1.1-.82-1.1Z" transform="translate(0)"/><path class="cls-23" d="M50.19,95.06l-.11.38a26.76,26.76,0,0,1-2,4.94c-.89,1.5-1.83,2.25-2.81,2.25a1,1,0,0,1-1.18-.77,1,1,0,0,1,0-.38,9.26,9.26,0,0,1,.64-2.7c-.14.23-.25.3-.33.22a.23.23,0,0,1,0-.28l.38-.73a3.66,3.66,0,0,0,.4-1.66c0-.55-.11-.87-.34-1a12.42,12.42,0,0,1,1.49-.21.28.28,0,0,1,.27.18,1.74,1.74,0,0,1,.05.39,8.94,8.94,0,0,1-.67,3.06,8.46,8.46,0,0,0-.67,2.37c0,.41.06.64.19.7a.86.86,0,0,0,.38.1c.37,0,.79-.3,1.26-.89a10.62,10.62,0,0,0,1.4-2.64,2.94,2.94,0,0,1-.29-1.2,3.65,3.65,0,0,1,.12-.93,2.12,2.12,0,0,1,1.22-1.51.81.81,0,0,1,.31-.06.3.3,0,0,1,.35.26A.21.21,0,0,1,50.19,95.06Z" transform="translate(0)"/><path class="cls-24" d="M51,99.17a4,4,0,0,0-.3,1.61,1.52,1.52,0,0,0,.26,1,.92.92,0,0,0,.76.35q1.93,0,3.51-3.64c.1-.22.22-.32.36-.29a.09.09,0,0,1,.09.09h0a7.86,7.86,0,0,1-.48,1.12,9.12,9.12,0,0,1-1,1.67,3.21,3.21,0,0,1-2.68,1.49,2,2,0,0,1-1.45-.56,1.93,1.93,0,0,1-.59-1.51,5.3,5.3,0,0,1,.45-2,8.29,8.29,0,0,1,1.25-2A4.81,4.81,0,0,1,53,95.11,2.3,2.3,0,0,1,54,94.9a1.42,1.42,0,0,1,.83.25.87.87,0,0,1,.36.66,3.21,3.21,0,0,1-1.53,2.45A5.84,5.84,0,0,1,51,99.2Zm3.57-3.41c0-.28-.11-.42-.34-.42-.4,0-1,.49-1.81,1.46a11.27,11.27,0,0,0-1.27,2,3.43,3.43,0,0,0,1.05-.25,4.19,4.19,0,0,0,1.2-.68,2.81,2.81,0,0,0,1.17-2.07Z" transform="translate(0)"/></svg>