<?xml version="1.0" encoding="utf-8"?>
<!-- Generator: Adobe Illustrator 22.1.0, SVG Export Plug-In . SVG Version: 6.00 Build 0)  -->
<svg version="1.1" id="Design" xmlns="http://www.w3.org/2000/svg" xmlns:xlink="http://www.w3.org/1999/xlink" x="0px" y="0px"
	 viewBox="0 0 81.6 192.5" style="enable-background:new 0 0 81.6 192.5;" xml:space="preserve">
<style type="text/css">
	.st0{fill:url(#SVGID_1_);}
	.st1{fill:url(#SVGID_2_);}
	.st2{fill:url(#SVGID_3_);}
	.st3{fill:url(#SVGID_4_);}
	.st4{fill:url(#SVGID_5_);}
	.st5{fill:url(#SVGID_6_);}
	.st6{fill:url(#SVGID_7_);}
	.st7{fill:url(#SVGID_8_);}
	.st8{fill:url(#SVGID_9_);}
	.st9{fill:url(#SVGID_10_);}
	.st10{fill:url(#SVGID_11_);}
	.st11{fill:url(#SVGID_12_);}
	.st12{fill:url(#SVGID_13_);}
	.st13{fill:url(#SVGID_14_);}
	.st14{fill:url(#SVGID_15_);}
	.st15{fill:url(#SVGID_16_);}
	.st16{fill:url(#SVGID_17_);}
	.st17{fill:url(#SVGID_18_);}
	.st18{fill:url(#SVGID_19_);}
	.st19{fill:url(#SVGID_20_);}
	.st20{fill:url(#SVGID_21_);}
</style>
<title>Golden ring</title>
<linearGradient id="SVGID_1_" gradientUnits="userSpaceOnUse" x1="16.5" y1="604.195" x2="70.12" y2="604.195" gradientTransform="matrix(1 0 0 1 0 -598)">
	<stop  offset="0" style="stop-color:#EEBE47"/>
	<stop  offset="0.12" style="stop-color:#F8DB77"/>
	<stop  offset="0.21" style="stop-color:#FFEE96"/>
	<stop  offset="0.45" style="stop-color:#A2621E"/>
	<stop  offset="0.67" style="stop-color:#EEA54C"/>
	<stop  offset="1" style="stop-color:#EEBE47"/>
</linearGradient>
<polygon class="st0" points="53,11.8 58.9,0.6 70.1,11.8 "/>
<linearGradient id="SVGID_2_" gradientUnits="userSpaceOnUse" x1="10.87" y1="604.195" x2="64.5" y2="604.195" gradientTransform="matrix(1 0 0 1 0 -598)">
	<stop  offset="0" style="stop-color:#EEBE47"/>
	<stop  offset="0.12" style="stop-color:#F8DB77"/>
	<stop  offset="0.21" style="stop-color:#FFEE96"/>
	<stop  offset="0.45" style="stop-color:#A2621E"/>
	<stop  offset="0.67" style="stop-color:#EEA54C"/>
	<stop  offset="1" style="stop-color:#EEBE47"/>
</linearGradient>
<polygon class="st1" points="10.9,11.8 22.1,0.6 28,11.8 "/>
<linearGradient id="SVGID_3_" gradientUnits="userSpaceOnUse" x1="114" y1="700.345" x2="173.28" y2="700.345" gradientTransform="matrix(1 0 0 1 -103.19 -672.83)">
	<stop  offset="0" style="stop-color:#EEBE47"/>
	<stop  offset="0.12" style="stop-color:#F8DB77"/>
	<stop  offset="0.21" style="stop-color:#FFEE96"/>
	<stop  offset="0.45" style="stop-color:#A2621E"/>
	<stop  offset="0.67" style="stop-color:#EEA54C"/>
	<stop  offset="1" style="stop-color:#EEBE47"/>
</linearGradient>
<path class="st2" d="M10.8,13.2h17.9l10.4,28.6L10.8,13.2z M52.2,13.2h17.9L41.8,41.8L52.2,13.2z"/>
<linearGradient id="SVGID_4_" gradientUnits="userSpaceOnUse" x1="31.8" y1="604.195" x2="60.26" y2="604.195" gradientTransform="matrix(1 0 0 1 0 -598)">
	<stop  offset="0" style="stop-color:#EEBE47"/>
	<stop  offset="0.12" style="stop-color:#F8DB77"/>
	<stop  offset="0.21" style="stop-color:#FFEE96"/>
	<stop  offset="0.45" style="stop-color:#A2621E"/>
	<stop  offset="0.67" style="stop-color:#EEA54C"/>
	<stop  offset="1" style="stop-color:#EEBE47"/>
</linearGradient>
<polygon class="st3" points="30.8,11.8 40.5,0.6 50.2,11.8 "/>
<linearGradient id="SVGID_5_" gradientUnits="userSpaceOnUse" x1="114.26" y1="678.46" x2="173.1" y2="678.46" gradientTransform="matrix(1 0 0 1 -103.19 -672.83)">
	<stop  offset="0" style="stop-color:#EEBE47"/>
	<stop  offset="0.12" style="stop-color:#F8DB77"/>
	<stop  offset="0.21" style="stop-color:#FFEE96"/>
	<stop  offset="0.45" style="stop-color:#A2621E"/>
	<stop  offset="0.67" style="stop-color:#EEA54C"/>
	<stop  offset="1" style="stop-color:#EEBE47"/>
</linearGradient>
<path class="st4" d="M23.4,0h15.7l-9.8,11.3L23.4,0z M41.9,0h15.8l-6,11.3L41.9,0z"/>
<linearGradient id="SVGID_6_" gradientUnits="userSpaceOnUse" x1="126.5" y1="678.46" x2="160.87" y2="678.46" gradientTransform="matrix(1 0 0 1 -103.19 -672.83)">
	<stop  offset="0" style="stop-color:#EEBE47"/>
	<stop  offset="0.12" style="stop-color:#F8DB77"/>
	<stop  offset="0.21" style="stop-color:#FFEE96"/>
	<stop  offset="0.45" style="stop-color:#A2621E"/>
	<stop  offset="0.67" style="stop-color:#EEA54C"/>
	<stop  offset="1" style="stop-color:#EEBE47"/>
</linearGradient>
<path class="st5" d="M23.4,0h15.7l-9.8,11.3L23.4,0z M41.9,0h15.8l-6,11.3L41.9,0z"/>
<linearGradient id="SVGID_7_" gradientUnits="userSpaceOnUse" x1="11.98" y1="625.335" x2="69.02" y2="625.335" gradientTransform="matrix(1 0 0 1 0 -598)">
	<stop  offset="0" style="stop-color:#EEBE47"/>
	<stop  offset="0.12" style="stop-color:#F8DB77"/>
	<stop  offset="0.21" style="stop-color:#FFEE96"/>
	<stop  offset="0.45" style="stop-color:#A2621E"/>
	<stop  offset="0.67" style="stop-color:#EEA54C"/>
	<stop  offset="1" style="stop-color:#EEBE47"/>
</linearGradient>
<polygon class="st6" points="30.2,13.2 50.8,13.2 40.5,41.5 "/>
<linearGradient id="SVGID_8_" gradientUnits="userSpaceOnUse" x1="30.23" y1="625.335" x2="50.76" y2="625.335" gradientTransform="matrix(1 0 0 1 0 -598)">
	<stop  offset="0" style="stop-color:#EEBE47"/>
	<stop  offset="0.12" style="stop-color:#F8DB77"/>
	<stop  offset="0.21" style="stop-color:#FFEE96"/>
	<stop  offset="0.45" style="stop-color:#A2621E"/>
	<stop  offset="0.67" style="stop-color:#EEA54C"/>
	<stop  offset="1" style="stop-color:#EEBE47"/>
</linearGradient>
<polygon class="st7" points="30.2,13.2 50.8,13.2 40.5,41.5 "/>
<linearGradient id="SVGID_9_" gradientUnits="userSpaceOnUse" x1="1490.3607" y1="-2577.7107" x2="1386.6207" y2="-2672.8508" gradientTransform="matrix(-1 0 0 -1 1457.8101 -2559.1599)">
	<stop  offset="0" style="stop-color:#EEBE47"/>
	<stop  offset="0.12" style="stop-color:#F8DB77"/>
	<stop  offset="0.21" style="stop-color:#FFEE96"/>
	<stop  offset="0.45" style="stop-color:#A2621E"/>
	<stop  offset="0.67" style="stop-color:#EEA54C"/>
	<stop  offset="1" style="stop-color:#EEBE47"/>
</linearGradient>
<path class="st8" d="M40.8,46.3c21.8,0,39.5,17.7,39.5,39.5s-17.7,39.5-39.5,39.5S1.3,107.6,1.3,85.8l0,0C1.3,64,19,46.4,40.8,46.3z
	 M40.8,121C60.2,121,76,105.3,76,85.8S60.3,50.6,40.8,50.6c-19.4,0-35.2,15.7-35.2,35.2l0,0C5.6,105.2,21.4,121,40.8,121L40.8,121z"
	/>
<linearGradient id="SVGID_10_" gradientUnits="userSpaceOnUse" x1="75.1216" y1="699.2182" x2="258.5716" y2="857.5082" gradientTransform="matrix(1 0 0 1 -103.19 -672.83)">
	<stop  offset="0" style="stop-color:#EEBE47"/>
	<stop  offset="0.12" style="stop-color:#F8DB77"/>
	<stop  offset="0.21" style="stop-color:#FFEE96"/>
	<stop  offset="0.45" style="stop-color:#A2621E"/>
	<stop  offset="0.67" style="stop-color:#EEA54C"/>
	<stop  offset="1" style="stop-color:#EEBE47"/>
</linearGradient>
<path class="st9" d="M40.8,126.6C18.3,126.6,0,108.3,0,85.8C0,63.3,18.3,45,40.8,45s40.8,18.3,40.8,40.8c0,0,0,0,0,0l0,0
	C81.6,108.3,63.3,126.6,40.8,126.6z M40.8,49.5c-20.1,0-36.3,16.3-36.3,36.3s16.3,36.3,36.3,36.3s36.3-16.3,36.3-36.3l0,0
	C77.1,65.8,60.9,49.5,40.8,49.5z"/>
<linearGradient id="SVGID_11_" gradientUnits="userSpaceOnUse" x1="104.1878" y1="727.6558" x2="189.8577" y2="793.9858" gradientTransform="matrix(1 0 0 1 -103.19 -672.83)">
	<stop  offset="0" style="stop-color:#EEBE47"/>
	<stop  offset="0.12" style="stop-color:#F8DB77"/>
	<stop  offset="0.21" style="stop-color:#FFEE96"/>
	<stop  offset="0.45" style="stop-color:#A2621E"/>
	<stop  offset="0.67" style="stop-color:#EEA54C"/>
	<stop  offset="1" style="stop-color:#EEBE47"/>
</linearGradient>
<path class="st10" d="M34.3,71.9c-1.7-0.9-3.5-1.5-5.4-1.7c-1.2,0-2.5,0.4-3.4,1.2c-0.8,0.6-1.3,1.4-1.3,2.4c-0.1,0.4,0.1,0.8,0.5,1
	c0.4,0.2,0.8,0.3,1.2,0.4c0.1,0,0.3,0,0.4-0.1c0.5-0.1,0.9-0.3,1.3-0.6c0.4-0.3,0.5-0.5,0.5-0.7c0-0.1,0-0.3,0.2-0.4
	c0.1-0.1,0.2-0.1,0.2,0.1c0,0.1,0,0.2,0,0.2c-0.2,0.8-0.8,1.4-1.6,1.6c-0.4,0.1-0.7,0.2-1.1,0.2c-0.4,0-0.8-0.1-1.1-0.3
	c-0.7-0.4-1.1-1.1-1.1-1.8c0-1.1,0.5-2,1.4-2.7c0.9-0.8,2.1-1.2,3.3-1.2c0.7,0,1.3,0.1,1.9,0.3c1.6,0.4,3.1,1.1,4.4,1.9
	c0.3-0.3,0.6-0.5,1.1-0.6c0.4,0,0.6,0.1,0.6,0.4s0,0.2-0.1,0.2c-0.1,0-0.1-0.1-0.2-0.1c-0.1,0-0.2,0-0.2-0.1c-0.3,0-0.6,0.1-0.8,0.4
	c0.9,0.4,1.9,0.8,2.9,1.1c0.3,0.1,0.7,0.1,1,0.2h0.6c0.4,0,0.8-0.2,1-0.6c0-0.1,0.1-0.2,0.2-0.3c0.1,0,0.1,0,0.1,0.1v0.1
	c0,0.4-0.3,0.8-0.7,1c-0.3,0.1-0.5,0.2-0.8,0.2c-0.3,0-0.6,0-0.8-0.1c-0.4-0.1-0.8-0.2-1.2-0.3c-0.5-0.2-0.9-0.3-1.2-0.4
	s-0.6-0.3-0.9-0.4l-0.5-0.2c-0.8,1-1.4,2.2-1.8,3.4l-0.4,0.9c0.6,0.1,1.2,0.1,1.8,0.1h1.3c0.3,0,0.5,0,0.5,0.1S35.2,77,33.6,77
	c-0.4,0-0.8,0-1.3,0c-0.5,1.5-1.2,2.9-2.1,4.2c-0.3,0.4-0.7,0.8-1.1,1.2c-0.4,0.4-0.9,0.7-1.4,1c-1.1,0.6-2.4,0.9-3.7,0.9
	c-1.2,0-2.4-0.3-3.4-0.9c-1.4-0.8-2.2-2.3-2.1-3.8c0-0.6,0.1-1.2,0.3-1.8c0.1-0.4,0.4-0.8,0.7-1.1c0.3-0.3,0.6-0.5,0.9-0.6
	c0.2-0.1,0.4-0.1,0.3,0c-0.2,0.2-0.4,0.3-0.6,0.4c-0.6,0.4-1.1,1.1-1.3,1.9c-0.1,0.3-0.1,0.7-0.1,1c0,0.4,0.1,0.8,0.3,1.2
	c0.5,1.2,1.6,2.2,2.8,2.6c0.7,0.3,1.4,0.4,2.2,0.4c0.8,0,1.6-0.2,2.3-0.5c0.8-0.3,1.5-0.8,2.1-1.4c1.3-1.3,2.4-2.9,3.1-4.7h-1.1
	c-0.9-0.1-1.9,0.2-2.6,0.9C28,78,27.9,78,27.9,78c-0.1-0.1-0.1-0.2,0-0.2c0.2-0.5,0.6-0.9,1-1.1c0.4-0.2,0.9-0.3,1.3-0.3
	c0.6,0,1.2,0.1,1.8,0.2c0.4-0.9,0.8-1.8,1.3-2.6C33.5,73.1,33.9,72.5,34.3,71.9z"/>
<linearGradient id="SVGID_12_" gradientUnits="userSpaceOnUse" x1="106.3076" y1="724.9231" x2="191.9676" y2="791.2531" gradientTransform="matrix(1 0 0 1 -103.19 -672.83)">
	<stop  offset="0" style="stop-color:#EEBE47"/>
	<stop  offset="0.12" style="stop-color:#F8DB77"/>
	<stop  offset="0.21" style="stop-color:#FFEE96"/>
	<stop  offset="0.45" style="stop-color:#A2621E"/>
	<stop  offset="0.67" style="stop-color:#EEA54C"/>
	<stop  offset="1" style="stop-color:#EEBE47"/>
</linearGradient>
<path class="st11" d="M36.7,79.5c-0.2,0.4-0.3,0.8-0.2,1.3c0,0.3,0.1,0.5,0.2,0.7c0.1,0.2,0.4,0.3,0.6,0.3c1,0,1.9-1,2.7-2.8
	c0.1-0.2,0.2-0.3,0.3-0.2c0,0,0.1,0,0.1,0.1c-0.1,0.3-0.2,0.6-0.4,0.9c-0.2,0.5-0.5,0.9-0.8,1.3c-0.5,0.7-1.2,1.1-2.1,1.2
	c-0.4,0-0.8-0.1-1.1-0.4c-0.3-0.3-0.5-0.7-0.5-1.2c0-0.5,0.1-1.1,0.3-1.6c0.3-0.6,0.6-1.1,1-1.6c0.4-0.5,0.9-0.8,1.4-1.1
	c0.2-0.1,0.5-0.2,0.7-0.2c0.2,0,0.5,0.1,0.7,0.2c0.2,0.1,0.3,0.3,0.3,0.5c-0.1,0.8-0.5,1.5-1.2,1.9c-0.3,0.2-0.6,0.4-1,0.5
	C37.4,79.4,37.1,79.4,36.7,79.5z M39.5,76.8c0-0.2-0.1-0.3-0.3-0.3c-0.6,0.2-1.1,0.6-1.4,1.2c-0.4,0.5-0.7,1-1,1.6
	c0.3,0,0.6-0.1,0.8-0.2c0.3-0.1,0.7-0.3,0.9-0.5C39.1,78.1,39.4,77.5,39.5,76.8z"/>
<linearGradient id="SVGID_13_" gradientUnits="userSpaceOnUse" x1="107.8596" y1="722.9406" x2="193.4996" y2="789.2505" gradientTransform="matrix(1 0 0 1 -103.19 -672.83)">
	<stop  offset="0" style="stop-color:#EEBE47"/>
	<stop  offset="0.12" style="stop-color:#F8DB77"/>
	<stop  offset="0.21" style="stop-color:#FFEE96"/>
	<stop  offset="0.45" style="stop-color:#A2621E"/>
	<stop  offset="0.67" style="stop-color:#EEA54C"/>
	<stop  offset="1" style="stop-color:#EEBE47"/>
</linearGradient>
<path class="st12" d="M40.8,79.5c-0.2,0.4-0.2,0.8-0.2,1.3c0,0.3,0.1,0.5,0.2,0.7c0.1,0.2,0.4,0.3,0.6,0.3c1,0,1.9-1,2.7-2.8
	c0.1-0.2,0.2-0.3,0.3-0.2c0,0,0.1,0,0.1,0.1c-0.1,0.3-0.2,0.6-0.4,0.9c-0.2,0.5-0.5,0.9-0.8,1.3c-0.5,0.7-1.2,1.1-2.1,1.2
	c-0.4,0-0.8-0.1-1.1-0.4c-0.3-0.3-0.5-0.7-0.5-1.2c0-0.5,0.1-1.1,0.3-1.6c0.3-0.6,0.6-1.1,1-1.6c0.4-0.5,0.9-0.8,1.4-1.1
	c0.2-0.1,0.5-0.2,0.7-0.2c0.2,0,0.5,0.1,0.7,0.2c0.2,0.1,0.3,0.3,0.3,0.5c-0.1,0.8-0.5,1.5-1.2,1.9c-0.3,0.2-0.6,0.4-1,0.5
	C41.5,79.4,41.2,79.4,40.8,79.5z M43.6,76.8c0-0.2-0.1-0.3-0.3-0.3c-0.3,0-0.8,0.4-1.4,1.2c-0.4,0.5-0.7,1-1,1.6
	c0.3,0,0.6-0.1,0.8-0.2c0.3-0.1,0.7-0.3,0.9-0.5C43.2,78.1,43.5,77.5,43.6,76.8L43.6,76.8z"/>
<linearGradient id="SVGID_14_" gradientUnits="userSpaceOnUse" x1="110.5159" y1="719.4711" x2="196.1959" y2="785.8111" gradientTransform="matrix(1 0 0 1 -103.19 -672.83)">
	<stop  offset="0" style="stop-color:#EEBE47"/>
	<stop  offset="0.12" style="stop-color:#F8DB77"/>
	<stop  offset="0.21" style="stop-color:#FFEE96"/>
	<stop  offset="0.45" style="stop-color:#A2621E"/>
	<stop  offset="0.67" style="stop-color:#EEA54C"/>
	<stop  offset="1" style="stop-color:#EEBE47"/>
</linearGradient>
<path class="st13" d="M44.9,79.3c-0.1,0.3-0.2,0.5-0.2,0.7c-0.1,0.2-0.1,0.5-0.1,0.7c0,0.2,0.1,0.5,0.2,0.7c0.1,0.2,0.3,0.3,0.5,0.3
	c0.4,0,0.8-0.3,1.2-0.8c0.4-0.6,0.8-1.3,1.2-2c0.1-0.2,0.2-0.2,0.3-0.2c0,0.1,0,0.1,0,0.2l-0.2,0.5c-0.1,0.2-0.2,0.4-0.2,0.5
	s-0.1,0.3-0.3,0.5c-0.1,0.2-0.2,0.4-0.3,0.5l-0.4,0.4c-0.1,0.2-0.3,0.3-0.5,0.4c-0.3,0.2-0.7,0.3-1.1,0.4c-0.3,0-0.6-0.1-0.8-0.2
	c-0.2-0.1-0.3-0.3-0.3-0.5c0-0.2-0.1-0.3-0.1-0.5v-0.5c0-0.3,0.1-0.7,0.2-1l0.2-0.6c0.3-1,0.7-2,1.1-3c0.3-0.8,0.7-1.7,1.2-2.4
	c0.2-0.4,0.5-0.8,0.8-1.1c0.3-0.3,0.7-0.6,1.1-0.6c0.3,0,0.4,0.2,0.5,0.5c0,0.1,0,0.2,0,0.3c0,0.5-0.2,1-0.4,1.4
	c-0.8,1.9-1.9,3.6-3.4,5L44.9,79.3z M46.9,76.1c0.5-0.7,0.9-1.5,1.2-2.2c0.2-0.4,0.3-0.8,0.4-1.3c0-0.2,0-0.3-0.1-0.3
	c-0.1,0-0.3,0.2-0.6,0.7c-0.5,0.8-0.9,1.5-1.3,2.3c-0.5,1.1-1,2.1-1.3,3C45.8,77.6,46.4,76.9,46.9,76.1L46.9,76.1z"/>
<linearGradient id="SVGID_15_" gradientUnits="userSpaceOnUse" x1="110.7802" y1="719.1597" x2="196.4302" y2="785.4897" gradientTransform="matrix(1 0 0 1 -103.19 -672.83)">
	<stop  offset="0" style="stop-color:#EEBE47"/>
	<stop  offset="0.12" style="stop-color:#F8DB77"/>
	<stop  offset="0.21" style="stop-color:#FFEE96"/>
	<stop  offset="0.45" style="stop-color:#A2621E"/>
	<stop  offset="0.67" style="stop-color:#EEA54C"/>
	<stop  offset="1" style="stop-color:#EEBE47"/>
</linearGradient>
<path class="st14" d="M48.3,81.6c0.3,0,0.5-0.1,0.7-0.3c0.6-0.8,1.2-1.6,1.6-2.5c0.1-0.2,0.2-0.2,0.2-0.2c0,0,0,0.1,0,0.1
	c0,0.1-0.1,0.2-0.1,0.4l-0.2,0.5c-0.1,0.3-0.3,0.5-0.4,0.8c-0.2,0.3-0.3,0.5-0.5,0.8c-0.3,0.4-0.8,0.7-1.3,0.8
	c-0.3,0-0.7-0.1-0.9-0.4c-0.2-0.2-0.3-0.5-0.3-0.8c0-0.3,0.1-0.7,0.2-1l1.1-2.7c0-0.1,0-0.2,0-0.3c0-0.2-0.1-0.3-0.2-0.4h1
	c0.3,0,0.4,0,0.5,0.1c0,0.2,0,0.3-0.1,0.4L48,80.1c-0.2,0.3-0.3,0.7-0.3,1C47.7,81.4,48,81.6,48.3,81.6z M49.9,75.6
	c-0.1,0.1-0.3,0.2-0.5,0.2c-0.2,0-0.3-0.1-0.4-0.2c-0.1-0.1-0.2-0.3-0.1-0.5c0-0.2,0.1-0.4,0.3-0.5c0.1-0.1,0.3-0.2,0.5-0.2
	c0.2,0,0.3,0.1,0.5,0.2c0.1,0.1,0.2,0.3,0.1,0.5C50.2,75.3,50.1,75.4,49.9,75.6z"/>
<linearGradient id="SVGID_16_" gradientUnits="userSpaceOnUse" x1="111.5287" y1="718.1817" x2="197.1987" y2="784.5117" gradientTransform="matrix(1 0 0 1 -103.19 -672.83)">
	<stop  offset="0" style="stop-color:#EEBE47"/>
	<stop  offset="0.12" style="stop-color:#F8DB77"/>
	<stop  offset="0.21" style="stop-color:#FFEE96"/>
	<stop  offset="0.45" style="stop-color:#A2621E"/>
	<stop  offset="0.67" style="stop-color:#EEA54C"/>
	<stop  offset="1" style="stop-color:#EEBE47"/>
</linearGradient>
<path class="st15" d="M55.5,76.6c-1.3,2.4-2,4-2,4.7c0,0.3,0.1,0.4,0.3,0.4c0.6,0,1.3-1,2.3-2.9c0.1-0.2,0.1-0.2,0.2-0.2
	c0.1,0,0.1,0.1,0.1,0.1c0,0.1,0,0.1-0.1,0.2c-0.4,0.9-0.9,1.7-1.5,2.4c-0.3,0.4-0.7,0.6-1.2,0.7c-0.4,0-0.7-0.2-0.9-0.5
	c-0.1-0.2-0.2-0.4-0.2-0.6c0-0.3,0.1-0.6,0.2-0.9c0.2-0.6,0.5-1.2,0.9-1.7c0.1-0.1,0.2-0.3,0.2-0.5c0-0.1-0.1-0.2-0.3-0.2
	S53,78,52.5,78.5c-1,0.9-1.7,2.1-2.3,3.3c0,0.1-0.1,0.2-0.2,0.2c-0.2,0-0.3,0.1-0.5,0.1c-0.2,0-0.3,0-0.5,0.1c0.2-0.4,0.5-1.1,1-2.2
	c0.5-1.2,1.1-2.3,1.8-3.3c0.1-0.1,0.3-0.2,0.5-0.2h0.3c0.1,0,0.3,0,0.4,0c-0.4,0.2-1.1,1.3-2,3.1c0.4-0.6,0.9-1.1,1.4-1.5
	c0.5-0.4,1-0.7,1.5-1c0.4-0.3,0.8-0.4,1.3-0.5C55.4,76.5,55.5,76.5,55.5,76.6z"/>
<linearGradient id="SVGID_17_" gradientUnits="userSpaceOnUse" x1="112.2418" y1="717.2406" x2="197.9218" y2="783.5806" gradientTransform="matrix(1 0 0 1 -103.19 -672.83)">
	<stop  offset="0" style="stop-color:#EEBE47"/>
	<stop  offset="0.12" style="stop-color:#F8DB77"/>
	<stop  offset="0.21" style="stop-color:#FFEE96"/>
	<stop  offset="0.45" style="stop-color:#A2621E"/>
	<stop  offset="0.67" style="stop-color:#EEA54C"/>
	<stop  offset="1" style="stop-color:#EEBE47"/>
</linearGradient>
<path class="st16" d="M54.9,87.3c-1,0-1.6-0.4-1.6-1.3s0.5-1.3,1.5-1.9c1-0.6,2.1-1,3.2-1.3c0.6-0.2,1-0.3,1.3-0.4
	c0.3-0.9,0.4-1.8,0.4-2.8c0-0.1,0-0.3,0-0.4c-0.4,0.7-0.8,1.3-1.3,1.9c-0.6,0.8-1.3,1.1-1.9,0.9c-0.6-0.2-0.9-0.8-0.9-1.4
	c0.1-1.2,0.6-2.3,1.4-3.1c0.4-0.6,1.1-1,1.8-1.2c0.2-0.1,0.4-0.1,0.6-0.1c0.5,0,1,0.2,1.5,0.5c0.2,0.2,0.3,0.3,0.3,0.4
	c0,0.1,0,0.2-0.1,0.3c-0.1,0.1-0.1,0.1-0.2,0c-0.1-0.1-0.1-0.1-0.1-0.2c-0.2-0.4-0.4-0.6-0.7-0.6c-0.8,0.1-1.5,0.6-2,1.2
	c-0.4,0.5-0.8,1-1.1,1.5c-0.3,0.5-0.5,1-0.5,1.5c0,0.3,0.1,0.6,0.3,0.7c0.1,0,0.2,0,0.2,0c0.4,0,0.7-0.2,1-0.5
	c0.4-0.4,0.8-0.8,1.1-1.3c0.3-0.4,0.5-0.8,0.6-1.3c0-0.2,0.2-0.4,0.3-0.6c0.1-0.1,0.3-0.1,0.4-0.1c0.1,0,0.2,0,0.3-0.1
	c0.1,0.6,0.1,1.2,0.1,1.8c0,0.8-0.1,1.5-0.3,2.3c0.4-0.3,0.8-0.6,1.1-1c0.2-0.2,0.4-0.5,0.5-0.8c0.1-0.2,0.2-0.5,0.3-0.7
	s0.1-0.3,0.2-0.4c0-0.1,0.1-0.1,0.2-0.1c0.1,0,0.1,0,0.1,0.1c0,0.1,0,0.1,0,0.2c-0.4,0.8-0.8,1.5-1.2,2.2c-0.4,0.5-0.8,0.8-1.3,1.1
	c-0.3,0.8-0.7,1.5-1.2,2.2c-0.5,0.8-1.2,1.5-1.9,2C56.6,86.9,55.8,87.2,54.9,87.3z M53.7,86.3c0,0.4,0.3,0.6,0.8,0.6
	c0.4,0,0.8-0.1,1.1-0.3c0.4-0.2,0.7-0.3,1-0.6c0.6-0.5,1.1-1,1.5-1.6c0.4-0.5,0.7-1.1,0.9-1.7l-0.6,0.2c-1.3,0.4-2.5,0.9-3.7,1.6
	c-0.5,0.3-0.8,0.8-1,1.3C53.8,86,53.7,86.1,53.7,86.3L53.7,86.3z"/>
<linearGradient id="SVGID_18_" gradientUnits="userSpaceOnUse" x1="96.2899" y1="737.8372" x2="181.9599" y2="804.1672" gradientTransform="matrix(1 0 0 1 -103.19 -672.83)">
	<stop  offset="0" style="stop-color:#EEBE47"/>
	<stop  offset="0.12" style="stop-color:#F8DB77"/>
	<stop  offset="0.21" style="stop-color:#FFEE96"/>
	<stop  offset="0.45" style="stop-color:#A2621E"/>
	<stop  offset="0.67" style="stop-color:#EEA54C"/>
	<stop  offset="1" style="stop-color:#EEBE47"/>
</linearGradient>
<path class="st17" d="M41.4,86.3c0,1.4-0.5,2.7-1.2,3.9c-0.9,1.4-2,2.6-3.3,3.5c-1.3,0.9-2.8,1.6-4.4,1.9c-0.9,1.7-1.5,3-1.9,3.7
	l-0.5,0.7c2.5,0.6,4.9,1.6,7,3.2c0.9,0.7,1.6,1.6,1.9,2.7c0.2,0.4,0.2,0.9,0.3,1.4c0,0.3-0.1,0.7-0.2,1c-0.1,0.2-0.3,0.4-0.5,0.5
	c-0.1,0.1-0.3,0.1-0.4,0.2c-0.1,0-0.1,0-0.1-0.1c0.1-0.2,0.1-0.4,0.2-0.6c0.2-0.4,0.3-0.8,0.3-1.2c0-0.5-0.1-1.1-0.3-1.6
	c-0.2-0.6-0.6-1.1-1.1-1.6c-0.7-0.6-1.4-1-2.3-1.3c-0.8-0.4-1.6-0.7-2.5-0.9c-0.7-0.2-1.6-0.4-2.8-0.6c-0.9,1.5-2.2,2.6-3.8,3.5
	c-0.6,0.3-1.4,0.5-2.1,0.6c-0.6,0-1.1-0.1-1.6-0.4c-0.7-0.3-1.2-1-1.2-1.8c0-0.8,0.5-1.5,1.6-2.1c1.5-0.8,3.2-1.1,4.9-1.1
	c0.7,0,1.3,0.1,2,0.2c0.8-1.3,1.6-2.7,2.2-4.1h-0.2c-0.8,0-1.7-0.1-2.5-0.4c-0.7-0.3-1.3-0.7-1.8-1.2c-0.6-0.6-0.9-1.4-0.9-2.3
	c0-0.5,0.1-1,0.3-1.4c0.3-0.6,0.8-1.2,1.4-1.6c0.9-0.6,1.9-1,2.9-1.2c0.2,0,0.3-0.1,0.5-0.1c0.1,0,0.2,0,0.2,0.1s0,0.1-0.2,0.2
	C31.3,87.9,31.1,88,31,88c-0.6,0.1-1.2,0.3-1.7,0.6c-0.9,0.6-1.6,1.6-1.9,2.7c-0.1,0.3-0.1,0.5-0.1,0.8c0,0.3,0.1,0.7,0.1,1
	c0.1,0.4,0.3,0.7,0.6,1.1c0.3,0.4,0.8,0.7,1.3,0.8c0.5,0.1,1,0.2,1.5,0.2c0.4,0,0.8,0,1.2-0.1l1.8-4.6c1.3-3.2,2.7-5.2,4.5-5.9
	c0.4-0.2,0.9-0.3,1.3-0.3c0.4,0,0.9,0.2,1.2,0.4c0.3,0.2,0.6,0.6,0.6,1C41.5,86,41.5,86.1,41.4,86.3z M28.8,100.8
	c-0.7-0.2-1.4-0.2-2.1-0.2c-0.8,0-1.5,0.1-2.3,0.3c-1.6,0.4-2.6,1-2.9,1.8c-0.1,0.1-0.1,0.3-0.1,0.4c0,0.4,0.2,0.7,0.6,0.9
	c0.4,0.2,0.9,0.4,1.3,0.3c0.8,0,1.5-0.2,2.2-0.6C26.9,103.1,28,102.1,28.8,100.8z M40.6,86.3c0-0.5-0.3-0.8-0.8-0.8
	c-0.7,0-1.6,0.6-2.6,1.9c-0.9,1.1-1.7,2.4-2.4,3.7c-0.8,1.4-1.4,2.7-2,4c2.1-0.5,3.9-1.6,5.3-3.3C39.6,90.4,40.5,88.4,40.6,86.3
	L40.6,86.3z"/>
<linearGradient id="SVGID_19_" gradientUnits="userSpaceOnUse" x1="97.5002" y1="736.304" x2="183.1502" y2="802.624" gradientTransform="matrix(1 0 0 1 -103.19 -672.83)">
	<stop  offset="0" style="stop-color:#EEBE47"/>
	<stop  offset="0.12" style="stop-color:#F8DB77"/>
	<stop  offset="0.21" style="stop-color:#FFEE96"/>
	<stop  offset="0.45" style="stop-color:#A2621E"/>
	<stop  offset="0.67" style="stop-color:#EEA54C"/>
	<stop  offset="1" style="stop-color:#EEBE47"/>
</linearGradient>
<path class="st18" d="M41.3,95c1,0,1.5,0.7,1.5,1.9c0,0.7-0.2,1.3-0.5,1.9c-0.4,0.9-1,1.8-1.8,2.5c0.2,0.4,0.6,0.6,1,0.5
	c0.4,0,0.8-0.2,1.1-0.6c0.4-0.3,0.7-0.7,0.9-1.2c0.2-0.3,0.3-0.6,0.4-0.7s0.2-0.4,0.3-0.7l0.3-0.5c0-0.1,0.1-0.1,0.2-0.1
	c0.1,0,0.2,0,0.2,0.1c0,0,0,0.1,0,0.2l-0.1,0.3l-0.2,0.4c0,0.1-0.1,0.2-0.2,0.4c-0.1,0.2-0.2,0.4-0.3,0.5l-0.3,0.5
	c-0.1,0.2-0.3,0.4-0.4,0.5l-0.4,0.4c-0.1,0.1-0.3,0.3-0.4,0.4c-0.3,0.2-0.6,0.3-1,0.3c-0.5,0-1-0.2-1.4-0.6
	c-0.5,0.4-1.1,0.7-1.8,0.7c-1,0-1.6-0.7-1.6-2c0-0.7,0.2-1.3,0.5-1.9c0.4-1,1-1.8,1.8-2.5C39.7,95.4,40.5,95.1,41.3,95z M41.5,95.7
	c-0.5,0.1-1,0.3-1.4,0.8c-0.6,0.6-1.1,1.3-1.4,2.1c-0.4,0.8-0.7,1.6-0.7,2.5c0,0.7,0.2,1,0.7,1c0.5-0.1,0.9-0.3,1.2-0.6
	c-0.2-0.3-0.3-0.6-0.3-1c0-0.6,0.3-0.9,0.8-0.9c0.2,0,0.3,0.1,0.5,0.2c0.1,0.1,0.2,0.2,0.2,0.3c0,0.1,0,0.2,0,0.3
	c0.3-0.5,0.6-1,0.8-1.5c0.3-0.7,0.5-1.4,0.5-2.1C42.3,96,42,95.7,41.5,95.7z"/>
<linearGradient id="SVGID_20_" gradientUnits="userSpaceOnUse" x1="100.3528" y1="732.6035" x2="186.0228" y2="798.9435" gradientTransform="matrix(1 0 0 1 -103.19 -672.83)">
	<stop  offset="0" style="stop-color:#EEBE47"/>
	<stop  offset="0.12" style="stop-color:#F8DB77"/>
	<stop  offset="0.21" style="stop-color:#FFEE96"/>
	<stop  offset="0.45" style="stop-color:#A2621E"/>
	<stop  offset="0.67" style="stop-color:#EEA54C"/>
	<stop  offset="1" style="stop-color:#EEBE47"/>
</linearGradient>
<path class="st19" d="M50.2,95.1l-0.1,0.4c-0.5,1.7-1.2,3.4-2,4.9c-0.9,1.5-1.8,2.3-2.8,2.3c-0.5,0.1-1.1-0.2-1.2-0.8
	c0-0.1,0-0.3,0-0.4c0.1-0.9,0.3-1.8,0.6-2.7c-0.1,0.2-0.3,0.3-0.3,0.2c-0.1-0.1-0.1-0.2,0-0.3l0.4-0.7c0.3-0.5,0.4-1.1,0.4-1.7
	c0-0.6-0.1-0.9-0.3-1c0.5-0.1,1-0.2,1.5-0.2c0.1,0,0.2,0.1,0.3,0.2c0,0.1,0,0.3,0,0.4c0,1.1-0.3,2.1-0.7,3.1
	c-0.3,0.8-0.6,1.6-0.7,2.4c0,0.4,0.1,0.6,0.2,0.7c0.1,0.1,0.2,0.1,0.4,0.1c0.4,0,0.8-0.3,1.3-0.9c0.6-0.8,1.1-1.7,1.4-2.6
	c-0.2-0.4-0.3-0.8-0.3-1.2c0-0.3,0-0.6,0.1-0.9c0.1-0.7,0.6-1.2,1.2-1.5c0.1,0,0.2-0.1,0.3-0.1c0.2,0,0.3,0.1,0.3,0.2c0,0,0,0,0,0
	C50.2,95,50.2,95,50.2,95.1z"/>
<linearGradient id="SVGID_21_" gradientUnits="userSpaceOnUse" x1="102.2989" y1="730.1144" x2="187.9489" y2="796.4344" gradientTransform="matrix(1 0 0 1 -103.19 -672.83)">
	<stop  offset="0" style="stop-color:#EEBE47"/>
	<stop  offset="0.12" style="stop-color:#F8DB77"/>
	<stop  offset="0.21" style="stop-color:#FFEE96"/>
	<stop  offset="0.45" style="stop-color:#A2621E"/>
	<stop  offset="0.67" style="stop-color:#EEA54C"/>
	<stop  offset="1" style="stop-color:#EEBE47"/>
</linearGradient>
<path class="st20" d="M51,99.2c-0.2,0.5-0.3,1.1-0.3,1.6c0,0.4,0.1,0.7,0.3,1c0.2,0.2,0.5,0.4,0.8,0.3c1.3,0,2.5-1.2,3.5-3.6
	c0.1-0.2,0.2-0.3,0.4-0.3c0,0,0.1,0,0.1,0.1l0,0c-0.1,0.4-0.3,0.8-0.5,1.1c-0.3,0.6-0.6,1.2-1,1.7c-0.6,0.9-1.6,1.5-2.7,1.5
	c-0.5,0-1.1-0.2-1.5-0.6c-0.4-0.4-0.6-0.9-0.6-1.5c0-0.7,0.2-1.4,0.5-2c0.3-0.7,0.7-1.4,1.3-2c0.5-0.6,1.1-1.1,1.8-1.4
	c0.3-0.1,0.7-0.2,1-0.2c0.3,0,0.6,0.1,0.8,0.3c0.2,0.2,0.3,0.4,0.4,0.7c-0.1,1-0.7,1.9-1.5,2.4C52.9,98.8,52,99.1,51,99.2L51,99.2z
	 M54.6,95.8c0-0.3-0.1-0.4-0.3-0.4c-0.4,0-1,0.5-1.8,1.5c-0.5,0.6-0.9,1.3-1.3,2c0.4,0,0.7-0.1,1-0.3c0.4-0.2,0.8-0.4,1.2-0.7
	C54.1,97.4,54.5,96.6,54.6,95.8L54.6,95.8z"/>
</svg>
